<svg xmlns="http://www.w3.org/2000/svg" xmlns:xlink="http://www.w3.org/1999/xlink" contentStyleType="text/css" data-diagram-type="ACTIVITY" height="1658px" preserveAspectRatio="none" style="width:1002px;height:1658px;background:#FFFFFF;" version="1.1" viewBox="0 0 1002 1658" width="1002px" zoomAndPan="magnify"><?plantuml 1.2026.6?><defs/><g><ellipse cx="480.4219" cy="25" fill="#222222" rx="10" ry="10" style="stroke:#222222;stroke-width:1;"/><rect fill="#F1F1F1" height="48.2656" rx="12.5" ry="12.5" style="stroke:#181818;stroke-width:0.5;" width="215.709" x="372.5674" y="55"/><text fill="#000000" font-family="sans-serif" font-size="12" lengthAdjust="spacing" textLength="96.791" x="382.5674" y="76.6016">mark job started</text><text fill="#000000" font-family="sans-serif" font-size="12" lengthAdjust="spacing" textLength="195.709" x="382.5674" y="90.7344">(POST /internal/jobs/{id}/started)</text><rect fill="#F1F1F1" height="48.2656" rx="12.5" ry="12.5" style="stroke:#181818;stroke-width:0.5;" width="170.1055" x="395.3691" y="217.6533"/><text fill="#000000" font-family="sans-serif" font-size="12" lengthAdjust="spacing" textLength="140.9531" x="405.3691" y="239.2549">journal a forced &#171;finish&#187;</text><text fill="#000000" font-family="sans-serif" font-size="12" lengthAdjust="spacing" textLength="150.1055" x="405.3691" y="253.3877">("cost budget exhausted")</text><polygon fill="#F1F1F1" points="373.9211,167.2656,586.9226,167.2656,598.9226,180.2207,586.9226,193.1758,373.9211,193.1758,361.9211,180.2207,373.9211,167.2656" style="stroke:#181818;stroke-width:0.5;stroke-linejoin:miter;stroke-miterlimit:10;"/><text fill="#000000" font-family="sans-serif" font-size="11" lengthAdjust="spacing" textLength="17.4829" x="484.4219" y="203.8105">yes</text><text fill="#000000" font-family="sans-serif" font-size="11" lengthAdjust="spacing" textLength="213.0015" x="373.9211" y="177.9004">cost so far &gt;= AGENT_MAX_COST_USD?</text><text fill="#000000" font-family="sans-serif" font-size="11" lengthAdjust="spacing" textLength="115.1724" x="373.9211" y="190.8555">(ADR-048 spend cap)</text><text fill="#000000" font-family="sans-serif" font-size="11" lengthAdjust="spacing" textLength="13.5835" x="598.9226" y="177.9004">no</text><path d="M603.6973,297.9189 L603.6973,344.8506 L583.6973,348.8506 L603.6973,352.8506 L603.6973,399.7822 A0,0 0 0 0 603.6973,399.7822 L865.7051,399.7822 A0,0 0 0 0 865.7051,399.7822 L865.7051,307.9189 L855.7051,297.9189 L603.6973,297.9189 A0,0 0 0 0 603.6973,297.9189" fill="#FEFFDD" style="stroke:#181818;stroke-width:0.5;"/><path d="M855.7051,297.9189 L855.7051,307.9189 L865.7051,307.9189 L855.7051,297.9189" fill="#FEFFDD" style="stroke:#181818;stroke-width:0.5;"/><text fill="#000000" font-family="sans-serif" font-size="13" lengthAdjust="spacing" textLength="192.2197" x="609.6973" y="315.4873">Defensive parsing everywhere:</text><text fill="#000000" font-family="sans-serif" font-size="13" lengthAdjust="spacing" textLength="160.7861" x="609.6973" y="330.7979">a malformed reply means</text><text fill="#000000" font-family="sans-serif" font-size="13" font-weight="700" lengthAdjust="spacing" textLength="38.27" x="774.5967" y="330.7979">finish</text><text fill="#000000" font-family="sans-serif" font-size="13" lengthAdjust="spacing" textLength="4.1133" x="812.8667" y="330.7979">,</text><text fill="#000000" font-family="sans-serif" font-size="13" lengthAdjust="spacing" textLength="214.6143" x="609.6973" y="346.1084">never a crash or a burned budget.</text><text fill="#000000" font-family="sans-serif" font-size="13" lengthAdjust="spacing" textLength="23.5308" x="609.6973" y="361.4189">The</text><text fill="#000000" font-family="sans-serif" font-size="13" font-weight="700" lengthAdjust="spacing" textLength="68.1929" x="637.3413" y="361.4189">spend cap</text><text fill="#000000" font-family="sans-serif" font-size="13" lengthAdjust="spacing" textLength="130.2476" x="709.6475" y="361.4189">(ADR-048) stops the</text><text fill="#000000" font-family="sans-serif" font-size="13" lengthAdjust="spacing" textLength="241.0078" x="609.6973" y="376.7295">run on money before the step budget;</text><text fill="#000000" font-family="sans-serif" font-size="13" lengthAdjust="spacing" textLength="207.9429" x="609.6973" y="392.04">with the keyless fakes cost is $0.</text><rect fill="#F1F1F1" height="48.2656" rx="12.5" ry="12.5" style="stroke:#181818;stroke-width:0.5;" width="206.5508" x="377.1465" y="324.7178"/><text fill="#000000" font-family="sans-serif" font-size="12" lengthAdjust="spacing" textLength="186.5508" x="387.1465" y="346.3193">policy.decide(goal, journal, hits)</text><text fill="#000000" font-family="sans-serif" font-size="12" font-weight="700" lengthAdjust="spacing" textLength="181.4121" x="387.1465" y="360.4521">the LLM picks the next action</text><polygon fill="#F1F1F1" points="461.8083,419.7822,499.0354,419.7822,511.0354,431.7822,499.0354,443.7822,461.8083,443.7822,449.8083,431.7822,461.8083,419.7822" style="stroke:#181818;stroke-width:0.5;stroke-linejoin:miter;stroke-miterlimit:10;"/><text fill="#000000" font-family="sans-serif" font-size="11" lengthAdjust="spacing" textLength="37.2271" x="461.8083" y="435.9395">action?</text><rect fill="#F1F1F1" height="34.1328" rx="12.5" ry="12.5" style="stroke:#181818;stroke-width:0.5;" width="151.0625" x="32.4268" y="479.6924"/><text fill="#000000" font-family="sans-serif" font-size="12" lengthAdjust="spacing" textLength="131.0625" x="42.4268" y="501.2939">provider.search(query)</text><rect fill="#F1F1F1" height="48.2656" rx="12.5" ry="12.5" style="stroke:#181818;stroke-width:0.5;" width="131.3926" x="42.2617" y="548.8252"/><text fill="#000000" font-family="sans-serif" font-size="12" lengthAdjust="spacing" textLength="111.3926" x="52.2617" y="570.4268">deduplicate by URL</text><text fill="#000000" font-family="sans-serif" font-size="12" lengthAdjust="spacing" textLength="108.7852" x="52.2617" y="584.5596">keep only new hits</text><rect fill="#F1F1F1" height="48.2656" rx="12.5" ry="12.5" style="stroke:#181818;stroke-width:0.5;" width="165.916" x="25" y="632.0908"/><text fill="#000000" font-family="sans-serif" font-size="12" lengthAdjust="spacing" textLength="123.8672" x="35" y="653.6924">journal step &#171;search&#187;</text><text fill="#000000" font-family="sans-serif" font-size="12" lengthAdjust="spacing" textLength="145.916" x="35" y="667.8252">(query, reason, new_hits)</text><polygon fill="#F1F1F1" points="306.5469,479.6924,454.7461,479.6924,466.7461,492.6475,454.7461,505.6025,306.5469,505.6025,294.5469,492.6475,306.5469,479.6924" style="stroke:#181818;stroke-width:0.5;stroke-linejoin:miter;stroke-miterlimit:10;"/><text fill="#000000" font-family="sans-serif" font-size="11" lengthAdjust="spacing" textLength="148.1992" x="306.5469" y="490.3271">clarification already present</text><text fill="#000000" font-family="sans-serif" font-size="11" lengthAdjust="spacing" textLength="109.5542" x="306.5469" y="503.2822">or no clarifier wired?</text><text fill="#000000" font-family="sans-serif" font-size="11" lengthAdjust="spacing" textLength="17.4829" x="277.064" y="490.3271">yes</text><text fill="#000000" font-family="sans-serif" font-size="11" lengthAdjust="spacing" textLength="13.5835" x="466.7461" y="490.3271">no</text><rect fill="#F1F1F1" height="48.2656" rx="12.5" ry="12.5" style="stroke:#181818;stroke-width:0.5;" width="153.7695" x="200.916" y="515.6025"/><text fill="#000000" font-family="sans-serif" font-size="12" lengthAdjust="spacing" textLength="99.3105" x="210.916" y="537.2041">degrade to finish</text><text fill="#000000" font-family="sans-serif" font-size="12" lengthAdjust="spacing" textLength="133.7695" x="210.916" y="551.3369">&#171;one question per job&#187;</text><rect fill="#F1F1F1" height="48.2656" rx="12.5" ry="12.5" style="stroke:#181818;stroke-width:0.5;" width="217.6133" x="374.6855" y="515.6025"/><text fill="#000000" font-family="sans-serif" font-size="12" lengthAdjust="spacing" textLength="197.6133" x="384.6855" y="537.2041">POST /internal/jobs/{id}/question</text><text fill="#000000" font-family="sans-serif" font-size="12" lengthAdjust="spacing" textLength="127.9102" x="384.6855" y="551.3369">job -&gt; awaiting_input</text><path d="M514.4922,598.8682 L514.4922,630.4893 L494.4922,634.4893 L514.4922,638.4893 L514.4922,670.1104 A0,0 0 0 0 514.4922,670.1104 L736.7891,670.1104 A0,0 0 0 0 736.7891,670.1104 L736.7891,608.8682 L726.7891,598.8682 L514.4922,598.8682 A0,0 0 0 0 514.4922,598.8682" fill="#FEFFDD" style="stroke:#181818;stroke-width:0.5;"/><path d="M726.7891,598.8682 L726.7891,608.8682 L736.7891,608.8682 L726.7891,598.8682" fill="#FEFFDD" style="stroke:#181818;stroke-width:0.5;"/><text fill="#000000" font-family="sans-serif" font-size="13" font-weight="700" lengthAdjust="spacing" textLength="50.9463" x="520.4922" y="616.4365">Paused.</text><text fill="#000000" font-family="sans-serif" font-size="13" lengthAdjust="spacing" textLength="124.2427" x="575.5518" y="616.4365">The task ends here;</text><text fill="#000000" font-family="sans-serif" font-size="13" lengthAdjust="spacing" textLength="201.2969" x="520.4922" y="631.7471">the user's answer re-dispatches</text><text fill="#000000" font-family="sans-serif" font-size="13" lengthAdjust="spacing" textLength="177.3472" x="520.4922" y="647.0576">the job with the clarification</text><text fill="#000000" font-family="sans-serif" font-size="13" lengthAdjust="spacing" textLength="123.4302" x="520.4922" y="662.3682">and a fresh journal.</text><ellipse cx="483.4922" cy="634.4893" fill="none" rx="11" ry="11" style="stroke:#222222;stroke-width:1;"/><ellipse cx="483.4922" cy="634.4893" fill="#222222" rx="6" ry="6" style="stroke:#222222;stroke-width:1;"/><rect fill="#F1F1F1" height="34.1328" rx="12.5" ry="12.5" style="stroke:#181818;stroke-width:0.5;" width="189.0547" x="766.7891" y="479.6924"/><text fill="#000000" font-family="sans-serif" font-size="12" lengthAdjust="spacing" textLength="169.0547" x="776.7891" y="501.2939">journal step &#171;finish&#187; (reason)</text><polygon fill="#F1F1F1" points="480.4219,690.3564,480.4219,690.3564,492.4219,702.3564,480.4219,714.3564,480.4219,714.3564,468.4219,702.3564,480.4219,690.3564" style="stroke:#181818;stroke-width:0.5;stroke-linejoin:miter;stroke-miterlimit:10;"/><polygon fill="#F1F1F1" points="480.4219,123.2656,492.4219,135.2656,480.4219,147.2656,468.4219,135.2656,480.4219,123.2656" style="stroke:#181818;stroke-width:0.5;stroke-linejoin:miter;stroke-miterlimit:10;"/><polygon fill="#F1F1F1" points="404.8694,734.3564,555.9744,734.3564,567.9744,746.3564,555.9744,758.3564,404.8694,758.3564,392.8694,746.3564,404.8694,734.3564" style="stroke:#181818;stroke-width:0.5;stroke-linejoin:miter;stroke-miterlimit:10;"/><text fill="#000000" font-family="sans-serif" font-size="11" lengthAdjust="spacing" textLength="151.105" x="404.8694" y="750.5137">steps &lt; AGENT_MAX_STEPS?</text><text fill="#000000" font-family="sans-serif" font-size="11" lengthAdjust="spacing" textLength="17.4829" x="567.9744" y="744.0361">yes</text><polygon fill="#F1F1F1" points="480.4219,778.3564,492.4219,790.3564,480.4219,802.3564,468.4219,790.3564,480.4219,778.3564" style="stroke:#181818;stroke-width:0.5;stroke-linejoin:miter;stroke-miterlimit:10;"/><rect fill="#F1F1F1" height="48.2656" rx="12.5" ry="12.5" style="stroke:#181818;stroke-width:0.5;" width="170.8262" x="395.0088" y="870.834"/><text fill="#000000" font-family="sans-serif" font-size="12" lengthAdjust="spacing" textLength="140.9531" x="405.0088" y="892.4355">journal a forced &#171;finish&#187;</text><text fill="#000000" font-family="sans-serif" font-size="12" lengthAdjust="spacing" textLength="150.8262" x="405.0088" y="906.5684">("step budget exhausted")</text><polygon fill="#F1F1F1" points="393.9661,822.3564,566.8777,822.3564,578.8777,834.3564,566.8777,846.3564,393.9661,846.3564,381.9661,834.3564,393.9661,822.3564" style="stroke:#181818;stroke-width:0.5;stroke-linejoin:miter;stroke-miterlimit:10;"/><text fill="#000000" font-family="sans-serif" font-size="11" lengthAdjust="spacing" textLength="128.1758" x="484.4219" y="856.9912">no &#8212; budget exhausted</text><text fill="#000000" font-family="sans-serif" font-size="11" lengthAdjust="spacing" textLength="172.9116" x="393.9661" y="838.5137">loop ended by an explicit finish?</text><text fill="#000000" font-family="sans-serif" font-size="11" lengthAdjust="spacing" textLength="17.4829" x="578.8777" y="832.0361">yes</text><polygon fill="#F1F1F1" points="480.4219,939.0996,492.4219,951.0996,480.4219,963.0996,468.4219,951.0996,480.4219,939.0996" style="stroke:#181818;stroke-width:0.5;stroke-linejoin:miter;stroke-miterlimit:10;"/><rect fill="none" height="379.8955" style="stroke:#000000;stroke-width:1.5;" width="318.1904" x="327.3267" y="973.5527"/><path d="M635.5171,973.5527 L635.5171,983.041 L625.5171,993.041 L327.3267,993.041" fill="none" style="stroke:#000000;stroke-width:1.5;"/><text fill="#000000" font-family="sans-serif" font-size="14" lengthAdjust="spacing" textLength="298.1904" x="330.3267" y="988.0879">Self-critique (ADR-031) &#8212; agent mode only</text><rect fill="#F1F1F1" height="48.2656" rx="12.5" ry="12.5" style="stroke:#181818;stroke-width:0.5;" width="202.4375" x="379.2031" y="1010.041"/><text fill="#000000" font-family="sans-serif" font-size="12" lengthAdjust="spacing" textLength="138.4629" x="389.2031" y="1031.6426">critic.critique(goal, hits)</text><text fill="#000000" font-family="sans-serif" font-size="12" lengthAdjust="spacing" textLength="182.4375" x="389.2031" y="1045.7754">one LLM call over the whole set</text><rect fill="#F1F1F1" height="34.1328" rx="12.5" ry="12.5" style="stroke:#181818;stroke-width:0.5;" width="202.1504" x="379.3467" y="1078.3066"/><text fill="#000000" font-family="sans-serif" font-size="12" lengthAdjust="spacing" textLength="182.1504" x="389.3467" y="1099.9082">drop the URLs judged off-topic</text><rect fill="#F1F1F1" height="34.1328" rx="12.5" ry="12.5" style="stroke:#181818;stroke-width:0.5;" width="229.3086" x="365.7676" y="1132.4395"/><text fill="#000000" font-family="sans-serif" font-size="12" lengthAdjust="spacing" textLength="209.3086" x="375.7676" y="1154.041">journal step &#171;critique&#187; (assessment)</text><rect fill="#F1F1F1" height="62.3984" rx="12.5" ry="12.5" style="stroke:#181818;stroke-width:0.5;" width="237.6934" x="361.5752" y="1235.0498"/><text fill="#000000" font-family="sans-serif" font-size="12" lengthAdjust="spacing" textLength="101.1855" x="371.5752" y="1256.6514">one repair search</text><text fill="#000000" font-family="sans-serif" font-size="12" lengthAdjust="spacing" textLength="123.8672" x="371.5752" y="1270.7842">journal step &#171;search&#187;</text><text fill="#000000" font-family="sans-serif" font-size="12" lengthAdjust="spacing" textLength="217.6934" x="371.5752" y="1284.917">&#171;never re-critiqued &#8212; bounded cost&#187;</text><polygon fill="#F1F1F1" points="384.376,1186.5723,576.4678,1186.5723,588.4678,1198.5723,576.4678,1210.5723,384.376,1210.5723,372.376,1198.5723,384.376,1186.5723" style="stroke:#181818;stroke-width:0.5;stroke-linejoin:miter;stroke-miterlimit:10;"/><text fill="#000000" font-family="sans-serif" font-size="11" lengthAdjust="spacing" textLength="17.4829" x="484.4219" y="1221.207">yes</text><text fill="#000000" font-family="sans-serif" font-size="11" lengthAdjust="spacing" textLength="192.0918" x="384.376" y="1202.7295">gap named AND search budget left?</text><text fill="#000000" font-family="sans-serif" font-size="11" lengthAdjust="spacing" textLength="13.5835" x="588.4678" y="1196.252">no</text><polygon fill="#F1F1F1" points="480.4219,1317.4482,492.4219,1329.4482,480.4219,1341.4482,468.4219,1329.4482,480.4219,1317.4482" style="stroke:#181818;stroke-width:0.5;stroke-linejoin:miter;stroke-miterlimit:10;"/><rect fill="none" height="233.2852" style="stroke:#000000;stroke-width:1.5;" width="329.5703" x="315.6367" y="1363.4482"/><path d="M575.0186,1363.4482 L575.0186,1372.9365 L565.0186,1382.9365 L315.6367,1382.9365" fill="none" style="stroke:#000000;stroke-width:1.5;"/><text fill="#000000" font-family="sans-serif" font-size="14" lengthAdjust="spacing" textLength="249.3818" x="318.6367" y="1377.9834">Shared tail (same as workflow mode)</text><rect fill="#F1F1F1" height="62.3984" rx="12.5" ry="12.5" style="stroke:#181818;stroke-width:0.5;" width="309.5703" x="325.6367" y="1399.9365"/><text fill="#000000" font-family="sans-serif" font-size="12" lengthAdjust="spacing" textLength="251.8535" x="335.6367" y="1421.5381">enrich every hit &#8212; one batched, concurrent</text><text fill="#000000" font-family="sans-serif" font-size="12" lengthAdjust="spacing" textLength="148.5645" x="335.6367" y="1435.6709">LLM pass (ADR-027/042)</text><text fill="#000000" font-family="sans-serif" font-size="12" lengthAdjust="spacing" textLength="289.5703" x="335.6367" y="1449.8037">date cascade (ADR-011) + event type + summary</text><rect fill="#F1F1F1" height="34.1328" rx="12.5" ry="12.5" style="stroke:#181818;stroke-width:0.5;" width="238.3848" x="361.2295" y="1482.335"/><text fill="#000000" font-family="sans-serif" font-size="12" lengthAdjust="spacing" textLength="218.3848" x="371.2295" y="1503.9365">sort by publication date, undated last</text><rect fill="#F1F1F1" height="48.2656" rx="12.5" ry="12.5" style="stroke:#181818;stroke-width:0.5;" width="256.8535" x="351.9951" y="1536.4678"/><text fill="#000000" font-family="sans-serif" font-size="12" lengthAdjust="spacing" textLength="236.8535" x="361.9951" y="1558.0693">deliver (POST /internal/jobs/{id}/results)</text><text fill="#000000" font-family="sans-serif" font-size="12" lengthAdjust="spacing" textLength="103.8047" x="361.9951" y="1572.2021">job -&gt; completed</text><ellipse cx="480.4219" cy="1627.7334" fill="none" rx="11" ry="11" style="stroke:#222222;stroke-width:1;"/><ellipse cx="480.4219" cy="1627.7334" fill="#222222" rx="6" ry="6" style="stroke:#222222;stroke-width:1;"/><line style="stroke:#181818;stroke-width:1;" x1="480.4219" x2="480.4219" y1="35" y2="55"/><polygon fill="#181818" points="476.4219,45,480.4219,55,484.4219,45,480.4219,49" style="stroke:#181818;stroke-width:1;stroke-linejoin:miter;stroke-miterlimit:10;"/><line style="stroke:#181818;stroke-width:1;" x1="480.4219" x2="480.4219" y1="265.9189" y2="270.9189"/><line style="stroke:#181818;stroke-width:1;" x1="480.4219" x2="15" y1="270.9189" y2="270.9189"/><line style="stroke:#181818;stroke-width:1;" x1="15" x2="15" y1="270.9189" y2="790.3564"/><line style="stroke:#181818;stroke-width:1;" x1="15" x2="468.4219" y1="790.3564" y2="790.3564"/><polygon fill="#181818" points="458.4219,786.3564,468.4219,790.3564,458.4219,794.3564,462.4219,790.3564" style="stroke:#181818;stroke-width:1;stroke-linejoin:miter;stroke-miterlimit:10;"/><line style="stroke:#181818;stroke-width:1;" x1="480.4219" x2="480.4219" y1="193.1758" y2="217.6533"/><polygon fill="#181818" points="476.4219,207.6533,480.4219,217.6533,484.4219,207.6533,480.4219,211.6533" style="stroke:#181818;stroke-width:1;stroke-linejoin:miter;stroke-miterlimit:10;"/><line style="stroke:#181818;stroke-width:1;" x1="598.9226" x2="610.9226" y1="180.2207" y2="180.2207"/><polygon fill="#181818" points="606.9226,245.8086,610.9226,255.8086,614.9226,245.8086,610.9226,249.8086" style="stroke:#181818;stroke-width:1;stroke-linejoin:miter;stroke-miterlimit:10;"/><line style="stroke:#181818;stroke-width:1;" x1="610.9226" x2="610.9226" y1="180.2207" y2="287.9189"/><line style="stroke:#181818;stroke-width:1;" x1="610.9226" x2="480.4219" y1="287.9189" y2="287.9189"/><line style="stroke:#181818;stroke-width:1;" x1="480.4219" x2="480.4219" y1="287.9189" y2="324.7178"/><polygon fill="#181818" points="476.4219,314.7178,480.4219,324.7178,484.4219,314.7178,480.4219,318.7178" style="stroke:#181818;stroke-width:1;stroke-linejoin:miter;stroke-miterlimit:10;"/><line style="stroke:#181818;stroke-width:1;" x1="107.958" x2="107.958" y1="513.8252" y2="548.8252"/><polygon fill="#181818" points="103.958,538.8252,107.958,548.8252,111.958,538.8252,107.958,542.8252" style="stroke:#181818;stroke-width:1;stroke-linejoin:miter;stroke-miterlimit:10;"/><line style="stroke:#181818;stroke-width:1;" x1="107.958" x2="107.958" y1="597.0908" y2="632.0908"/><polygon fill="#181818" points="103.958,622.0908,107.958,632.0908,111.958,622.0908,107.958,626.0908" style="stroke:#181818;stroke-width:1;stroke-linejoin:miter;stroke-miterlimit:10;"/><line style="stroke:#181818;stroke-width:1;" x1="277.8008" x2="277.8008" y1="563.8682" y2="598.8682"/><polygon fill="#181818" points="273.8008,588.8682,277.8008,598.8682,281.8008,588.8682,277.8008,592.8682" style="stroke:#181818;stroke-width:1;stroke-linejoin:miter;stroke-miterlimit:10;"/><line style="stroke:#181818;stroke-width:1;" x1="483.4922" x2="483.4922" y1="563.8682" y2="623.4893"/><polygon fill="#181818" points="479.4922,613.4893,483.4922,623.4893,487.4922,613.4893,483.4922,617.4893" style="stroke:#181818;stroke-width:1;stroke-linejoin:miter;stroke-miterlimit:10;"/><line style="stroke:#181818;stroke-width:1;" x1="294.5469" x2="277.8008" y1="492.6475" y2="492.6475"/><line style="stroke:#181818;stroke-width:1;" x1="277.8008" x2="277.8008" y1="492.6475" y2="515.6025"/><polygon fill="#181818" points="273.8008,505.6025,277.8008,515.6025,281.8008,505.6025,277.8008,509.6025" style="stroke:#181818;stroke-width:1;stroke-linejoin:miter;stroke-miterlimit:10;"/><line style="stroke:#181818;stroke-width:1;" x1="466.7461" x2="483.4922" y1="492.6475" y2="492.6475"/><line style="stroke:#181818;stroke-width:1;" x1="483.4922" x2="483.4922" y1="492.6475" y2="515.6025"/><polygon fill="#181818" points="479.4922,505.6025,483.4922,515.6025,487.4922,505.6025,483.4922,509.6025" style="stroke:#181818;stroke-width:1;stroke-linejoin:miter;stroke-miterlimit:10;"/><line style="stroke:#181818;stroke-width:1;" x1="861.3164" x2="861.3164" y1="513.8252" y2="548.8252"/><polygon fill="#181818" points="857.3164,538.8252,861.3164,548.8252,865.3164,538.8252,861.3164,542.8252" style="stroke:#181818;stroke-width:1;stroke-linejoin:miter;stroke-miterlimit:10;"/><line style="stroke:#181818;stroke-width:1;" x1="449.8083" x2="107.958" y1="431.7822" y2="431.7822"/><line style="stroke:#181818;stroke-width:1;" x1="107.958" x2="107.958" y1="431.7822" y2="479.6924"/><polygon fill="#181818" points="103.958,469.6924,107.958,479.6924,111.958,469.6924,107.958,473.6924" style="stroke:#181818;stroke-width:1;stroke-linejoin:miter;stroke-miterlimit:10;"/><text fill="#000000" font-family="sans-serif" font-size="11" lengthAdjust="spacing" textLength="34.7725" x="107.958" y="459.8945">search</text><line style="stroke:#181818;stroke-width:1;" x1="511.0354" x2="861.3164" y1="431.7822" y2="431.7822"/><line style="stroke:#181818;stroke-width:1;" x1="861.3164" x2="861.3164" y1="431.7822" y2="479.6924"/><polygon fill="#181818" points="857.3164,469.6924,861.3164,479.6924,865.3164,469.6924,861.3164,473.6924" style="stroke:#181818;stroke-width:1;stroke-linejoin:miter;stroke-miterlimit:10;"/><text fill="#000000" font-family="sans-serif" font-size="11" lengthAdjust="spacing" textLength="29.6646" x="861.3164" y="459.8945">finish</text><line style="stroke:#181818;stroke-width:1;" x1="380.6465" x2="380.6465" y1="431.7822" y2="479.6924"/><polygon fill="#181818" points="376.6465,469.6924,380.6465,479.6924,384.6465,469.6924,380.6465,473.6924" style="stroke:#181818;stroke-width:1;stroke-linejoin:miter;stroke-miterlimit:10;"/><text fill="#000000" font-family="sans-serif" font-size="11" lengthAdjust="spacing" textLength="86.0879" x="380.6465" y="454.8945">ask &#8212; ADR-032</text><line style="stroke:#181818;stroke-width:1;" x1="107.958" x2="107.958" y1="680.3564" y2="702.3564"/><line style="stroke:#181818;stroke-width:1;" x1="107.958" x2="468.4219" y1="702.3564" y2="702.3564"/><polygon fill="#181818" points="458.4219,698.3564,468.4219,702.3564,458.4219,706.3564,462.4219,702.3564" style="stroke:#181818;stroke-width:1;stroke-linejoin:miter;stroke-miterlimit:10;"/><line style="stroke:#181818;stroke-width:1;" x1="480.4219" x2="480.4219" y1="372.9834" y2="419.7822"/><polygon fill="#181818" points="476.4219,409.7822,480.4219,419.7822,484.4219,409.7822,480.4219,413.7822" style="stroke:#181818;stroke-width:1;stroke-linejoin:miter;stroke-miterlimit:10;"/><line style="stroke:#181818;stroke-width:1;" x1="480.4219" x2="480.4219" y1="147.2656" y2="167.2656"/><polygon fill="#181818" points="476.4219,157.2656,480.4219,167.2656,484.4219,157.2656,480.4219,161.2656" style="stroke:#181818;stroke-width:1;stroke-linejoin:miter;stroke-miterlimit:10;"/><line style="stroke:#181818;stroke-width:1;" x1="567.9744" x2="967.8438" y1="746.3564" y2="746.3564"/><polygon fill="#181818" points="963.8438,459.0723,967.8438,449.0723,971.8438,459.0723,967.8438,455.0723" style="stroke:#181818;stroke-width:1;stroke-linejoin:miter;stroke-miterlimit:10;"/><line style="stroke:#181818;stroke-width:1;" x1="967.8438" x2="967.8438" y1="135.2656" y2="746.3564"/><line style="stroke:#181818;stroke-width:1;" x1="967.8438" x2="492.4219" y1="135.2656" y2="135.2656"/><polygon fill="#181818" points="502.4219,131.2656,492.4219,135.2656,502.4219,139.2656,498.4219,135.2656" style="stroke:#181818;stroke-width:1;stroke-linejoin:miter;stroke-miterlimit:10;"/><line style="stroke:#181818;stroke-width:1;" x1="480.4219" x2="480.4219" y1="714.3564" y2="734.3564"/><polygon fill="#181818" points="476.4219,724.3564,480.4219,734.3564,484.4219,724.3564,480.4219,728.3564" style="stroke:#181818;stroke-width:1;stroke-linejoin:miter;stroke-miterlimit:10;"/><line style="stroke:#181818;stroke-width:1;" x1="480.4219" x2="480.4219" y1="758.3564" y2="778.3564"/><polygon fill="#181818" points="476.4219,768.3564,480.4219,778.3564,484.4219,768.3564,480.4219,772.3564" style="stroke:#181818;stroke-width:1;stroke-linejoin:miter;stroke-miterlimit:10;"/><line style="stroke:#181818;stroke-width:1;" x1="480.4219" x2="480.4219" y1="103.2656" y2="123.2656"/><polygon fill="#181818" points="476.4219,113.2656,480.4219,123.2656,484.4219,113.2656,480.4219,117.2656" style="stroke:#181818;stroke-width:1;stroke-linejoin:miter;stroke-miterlimit:10;"/><line style="stroke:#181818;stroke-width:1;" x1="480.4219" x2="480.4219" y1="846.3564" y2="870.834"/><polygon fill="#181818" points="476.4219,860.834,480.4219,870.834,484.4219,860.834,480.4219,864.834" style="stroke:#181818;stroke-width:1;stroke-linejoin:miter;stroke-miterlimit:10;"/><line style="stroke:#181818;stroke-width:1;" x1="578.8777" x2="590.8777" y1="834.3564" y2="834.3564"/><polygon fill="#181818" points="586.8777,884.9668,590.8777,894.9668,594.8777,884.9668,590.8777,888.9668" style="stroke:#181818;stroke-width:1;stroke-linejoin:miter;stroke-miterlimit:10;"/><line style="stroke:#181818;stroke-width:1;" x1="590.8777" x2="590.8777" y1="834.3564" y2="951.0996"/><line style="stroke:#181818;stroke-width:1;" x1="590.8777" x2="492.4219" y1="951.0996" y2="951.0996"/><polygon fill="#181818" points="502.4219,947.0996,492.4219,951.0996,502.4219,955.0996,498.4219,951.0996" style="stroke:#181818;stroke-width:1;stroke-linejoin:miter;stroke-miterlimit:10;"/><line style="stroke:#181818;stroke-width:1;" x1="480.4219" x2="480.4219" y1="919.0996" y2="939.0996"/><polygon fill="#181818" points="476.4219,929.0996,480.4219,939.0996,484.4219,929.0996,480.4219,933.0996" style="stroke:#181818;stroke-width:1;stroke-linejoin:miter;stroke-miterlimit:10;"/><line style="stroke:#181818;stroke-width:1;" x1="480.4219" x2="480.4219" y1="802.3564" y2="822.3564"/><polygon fill="#181818" points="476.4219,812.3564,480.4219,822.3564,484.4219,812.3564,480.4219,816.3564" style="stroke:#181818;stroke-width:1;stroke-linejoin:miter;stroke-miterlimit:10;"/><line style="stroke:#181818;stroke-width:1;" x1="480.4219" x2="480.4219" y1="1058.3066" y2="1078.3066"/><polygon fill="#181818" points="476.4219,1068.3066,480.4219,1078.3066,484.4219,1068.3066,480.4219,1072.3066" style="stroke:#181818;stroke-width:1;stroke-linejoin:miter;stroke-miterlimit:10;"/><line style="stroke:#181818;stroke-width:1;" x1="480.4219" x2="480.4219" y1="1112.4395" y2="1132.4395"/><polygon fill="#181818" points="476.4219,1122.4395,480.4219,1132.4395,484.4219,1122.4395,480.4219,1126.4395" style="stroke:#181818;stroke-width:1;stroke-linejoin:miter;stroke-miterlimit:10;"/><line style="stroke:#181818;stroke-width:1;" x1="480.4219" x2="480.4219" y1="1210.5723" y2="1235.0498"/><polygon fill="#181818" points="476.4219,1225.0498,480.4219,1235.0498,484.4219,1225.0498,480.4219,1229.0498" style="stroke:#181818;stroke-width:1;stroke-linejoin:miter;stroke-miterlimit:10;"/><line style="stroke:#181818;stroke-width:1;" x1="588.4678" x2="609.2686" y1="1198.5723" y2="1198.5723"/><polygon fill="#181818" points="605.2686,1256.249,609.2686,1266.249,613.2686,1256.249,609.2686,1260.249" style="stroke:#181818;stroke-width:1;stroke-linejoin:miter;stroke-miterlimit:10;"/><line style="stroke:#181818;stroke-width:1;" x1="609.2686" x2="609.2686" y1="1198.5723" y2="1329.4482"/><line style="stroke:#181818;stroke-width:1;" x1="609.2686" x2="492.4219" y1="1329.4482" y2="1329.4482"/><polygon fill="#181818" points="502.4219,1325.4482,492.4219,1329.4482,502.4219,1333.4482,498.4219,1329.4482" style="stroke:#181818;stroke-width:1;stroke-linejoin:miter;stroke-miterlimit:10;"/><line style="stroke:#181818;stroke-width:1;" x1="480.4219" x2="480.4219" y1="1297.4482" y2="1317.4482"/><polygon fill="#181818" points="476.4219,1307.4482,480.4219,1317.4482,484.4219,1307.4482,480.4219,1311.4482" style="stroke:#181818;stroke-width:1;stroke-linejoin:miter;stroke-miterlimit:10;"/><line style="stroke:#181818;stroke-width:1;" x1="480.4219" x2="480.4219" y1="1166.5723" y2="1186.5723"/><polygon fill="#181818" points="476.4219,1176.5723,480.4219,1186.5723,484.4219,1176.5723,480.4219,1180.5723" style="stroke:#181818;stroke-width:1;stroke-linejoin:miter;stroke-miterlimit:10;"/><line style="stroke:#181818;stroke-width:1;" x1="480.4219" x2="480.4219" y1="963.0996" y2="1010.041"/><polygon fill="#181818" points="476.4219,1000.041,480.4219,1010.041,484.4219,1000.041,480.4219,1004.041" style="stroke:#181818;stroke-width:1;stroke-linejoin:miter;stroke-miterlimit:10;"/><line style="stroke:#181818;stroke-width:1;" x1="480.4219" x2="480.4219" y1="1462.335" y2="1482.335"/><polygon fill="#181818" points="476.4219,1472.335,480.4219,1482.335,484.4219,1472.335,480.4219,1476.335" style="stroke:#181818;stroke-width:1;stroke-linejoin:miter;stroke-miterlimit:10;"/><line style="stroke:#181818;stroke-width:1;" x1="480.4219" x2="480.4219" y1="1516.4678" y2="1536.4678"/><polygon fill="#181818" points="476.4219,1526.4678,480.4219,1536.4678,484.4219,1526.4678,480.4219,1530.4678" style="stroke:#181818;stroke-width:1;stroke-linejoin:miter;stroke-miterlimit:10;"/><line style="stroke:#181818;stroke-width:1;" x1="480.4219" x2="480.4219" y1="1341.4482" y2="1399.9365"/><polygon fill="#181818" points="476.4219,1389.9365,480.4219,1399.9365,484.4219,1389.9365,480.4219,1393.9365" style="stroke:#181818;stroke-width:1;stroke-linejoin:miter;stroke-miterlimit:10;"/><line style="stroke:#181818;stroke-width:1;" x1="480.4219" x2="480.4219" y1="1584.7334" y2="1616.7334"/><polygon fill="#181818" points="476.4219,1606.7334,480.4219,1616.7334,484.4219,1606.7334,480.4219,1610.7334" style="stroke:#181818;stroke-width:1;stroke-linejoin:miter;stroke-miterlimit:10;"/><?plantuml-src XLPTRXit47xNAGP6WKYAVfmqQ0CfSU36RbB0YGDB0VeGmA1sAIsZ5RaXkL4MGO0UehVm4VBce_Ga_ORaof5TetuHlHmEPxxlcna-e7aXAPUPSifeMfPcIsP97X_5IcfF6vFB4VtXILHLgQGZR-Yty_bhCZOhfFDMU6DTvm5rZqykXeTFVkbDmkbIUMb5IQuGbMnT5aBdGslAKkPK6bFXqAlJj_FByukNhqzdyulZ-Vd5SzxemI5ieoUpKbbOdGczUcL5LT3C2o_ZqihAchpE49f6hCEbiKCTWlxTM3u6LoksVC2nLmRk6d8IVk4jR0n3fiEm7bNrfXpXoBn507TRwQH0kctCdEZFXptQAb_0LRaSPbPvzQcMxUQZ7eSFDqMz4Ngez1213CFnh1HMBLKcF0EUx1_tHk76ixCtX11Lrb1krMU66rypeprGWplcPvfGWI-ZouQaHifPCjt8322hp4te_SKPYCrhq1Ol6mGBvsK5JuiwNqdV4l3c-C_BsVpqtQoNZ2e9z3DH_MZmydmsltm_EnbGfFffD8Qp4g7IHrDRBSh1ZZXGRq6qr5PbnTWPwyUvP5FG8bGvefUSbt0-AcPhx9hpWpyM7Ic7_2GjrHSuIGGCZv8xNh57gbG5dx0BP6Ypqx8RTJhE2-ixausmQuIteF2_p3lTTqY5naf3emXvZ3qt_ghoR-DaqPjsEX2M5Bv3f9RKpOppk92MmjBHSxeBoeiFEbN0qnlqUZtE32mtqlNWYMYIK291WRMShg-MIYjNN7yF1js3S5MYHtufH0t6yWD4nDiBAyKQArawY4qRzehBr1A_awYS4IEGo-xAC1axLWhbGmpF5aU-LPhArb4sMdv1XMUiacVZnH7VfOsNPDMgyE7Y4xcKsZ7FbR1EwHL94Dbi2sdb95W8seWIIMsG5B23CZTIQ4VzVaomtny4Eyq7OPs1-W9j1Ci5OiIfcFGeM74rzFix9Flzji4yxO56KuMuWwMjDOG2pMZPq48Y0haJUd8PiGiAuPsrR4hf7CXSesm2tX3RJuUZ26P87Kk70r1QD-BoWi7B1CCUnPW8HVVv3BZjA7xjeWlO9h4rkQa_IOk6Ip9yNqkPYbVBRM1ckg-E4FlrLNJPAYDu7W1RuRYOSVGoa3hT1IRSclxvwszgcqeu5-IxrtH42HzvGnKtDkq_Q920oab686UhKBWlxeWt98GsYUB458YifethAwvLHEZ23HMSeAYklq_JVglRVUK6b_VMOkij6N81e-h5Lg3NwjMbqbNjM_yiYRIy9Lp-w_VVeOnaFeACM5YUWGBJZbY-qvqTYmDs5gC2ojqY2Ik7kNALy3pizkmud9sYzl3TcN4ZH9q3vQAjmr7Q_45cDmKSIOouzlvJ46she6vKmUskW9I2Q5FpecsXIXOiJZjwHhUQFHY6xYE_7PP962fmmhNO87pq7rQlyediVKcqJ0R9tMvO7F__DBlkmGybkj_g8Y8Tj1glWg0EPlUCMRxxvgKIYkg0llBbmJWRjMTIFspR8CkLUs0cof9Cc4ayWme3l5pi69FS0Wx-ZBfrz97ZpF6KMGuXDfLDEtVvQIzZXeHpQ38RX1POOdnN6AXQS8CyVdlIphIKVocN_cx9JJXEa2cKJVQTM0ltzudhgzXX8Tqsd3nIPEf0BJUyM9btfyYtVT3Z1ETf3H4XS19kDwS3uBq4TfhAOIOmnk52ZdqHIYSVy2Ccgwq57B0FqmS09I8V_pe-V1BQLSwT4dMGSPE9cu_0yaFs38vzWyVaGtBr1ZEz2Go4Lm3KMjMBzg4Jl0m8sU8NBqqyCIAVwVLn__X7gTPb54XgDvdPLAM4cocm2LtcNm00?></g></svg>