<svg xmlns="http://www.w3.org/2000/svg" xmlns:xlink="http://www.w3.org/1999/xlink" contentStyleType="text/css" data-diagram-type="STATE" height="850px" preserveAspectRatio="none" style="width:908px;height:850px;background:#FFFFFF;" version="1.1" viewBox="0 0 908 850" width="908px" zoomAndPan="magnify"><?plantuml 1.2026.6?><defs/><g><g class="entity" data-qualified-name="pending" data-source-line="7" id="ent0001"><rect fill="#F1F1F1" height="52.9766" rx="12.5" ry="12.5" style="stroke:#181818;stroke-width:0.5;" width="252.6475" x="407.62" y="183.46"/><line style="stroke:#181818;stroke-width:0.5;" x1="407.62" x2="660.2675" y1="209.9483" y2="209.9483"/><text fill="#000000" font-family="sans-serif" font-size="14" lengthAdjust="spacing" textLength="55.5762" x="506.1556" y="201.9952">pending</text><text fill="#000000" font-family="sans-serif" font-size="14" lengthAdjust="spacing" textLength="232.6475" x="412.62" y="228.4834">persisted, dispatched to the agent</text></g><g class="entity" data-qualified-name="running" data-source-line="8" id="ent0002"><rect fill="#F1F1F1" height="52.9766" rx="12.5" ry="12.5" style="stroke:#181818;stroke-width:0.5;" width="190.2627" x="66.81" y="313.44"/><line style="stroke:#181818;stroke-width:0.5;" x1="66.81" x2="257.0727" y1="339.9283" y2="339.9283"/><text fill="#000000" font-family="sans-serif" font-size="14" lengthAdjust="spacing" textLength="53.2588" x="135.312" y="331.9752">running</text><text fill="#000000" font-family="sans-serif" font-size="14" lengthAdjust="spacing" textLength="170.2627" x="71.81" y="358.4634">worker picked the job up</text></g><g class="entity" data-qualified-name="awaiting_input" data-source-line="9" id="ent0003"><rect fill="#F1F1F1" height="69.4648" rx="12.5" ry="12.5" style="stroke:#181818;stroke-width:0.5;" width="252.1826" x="119.85" y="7"/><line style="stroke:#181818;stroke-width:0.5;" x1="119.85" x2="372.0326" y1="33.4883" y2="33.4883"/><text fill="#000000" font-family="sans-serif" font-size="14" lengthAdjust="spacing" textLength="99.4697" x="196.2064" y="25.5352">awaiting_input</text><text fill="#000000" font-family="sans-serif" font-size="14" lengthAdjust="spacing" textLength="168.3691" x="124.85" y="52.0234">the agent asked the user</text><text fill="#000000" font-family="sans-serif" font-size="14" lengthAdjust="spacing" textLength="232.1826" x="124.85" y="68.5117">a clarification question (ADR-032)</text></g><g class="entity" data-qualified-name="completed" data-source-line="10" id="ent0004"><rect fill="#F1F1F1" height="69.4648" rx="12.5" ry="12.5" style="stroke:#181818;stroke-width:0.5;" width="150.6416" x="86.62" y="603.39"/><line style="stroke:#181818;stroke-width:0.5;" x1="86.62" x2="237.2616" y1="629.8783" y2="629.8783"/><text fill="#000000" font-family="sans-serif" font-size="14" lengthAdjust="spacing" textLength="71.3467" x="126.2675" y="621.9252">completed</text><text fill="#000000" font-family="sans-serif" font-size="14" lengthAdjust="spacing" textLength="93.5156" x="91.62" y="648.4134">results stored</text><text fill="#000000" font-family="sans-serif" font-size="14" lengthAdjust="spacing" textLength="130.6416" x="91.62" y="664.9017">(replace semantics)</text></g><g class="entity" data-qualified-name="failed" data-source-line="11" id="ent0005"><rect fill="#F1F1F1" height="52.9766" rx="12.5" ry="12.5" style="stroke:#181818;stroke-width:0.5;" width="101.3271" x="366.28" y="443.42"/><line style="stroke:#181818;stroke-width:0.5;" x1="366.28" x2="467.6071" y1="469.9083" y2="469.9083"/><text fill="#000000" font-family="sans-serif" font-size="14" lengthAdjust="spacing" textLength="37.584" x="398.1516" y="461.9552">failed</text><text fill="#000000" font-family="sans-serif" font-size="14" lengthAdjust="spacing" textLength="81.3271" x="371.28" y="488.4434">error stored</text></g><g class="start_entity" data-qualified-name=".start." data-source-line="13" id="ent0006"><ellipse cx="735.94" cy="41.73" fill="#222222" rx="10" ry="10" style="stroke:#222222;stroke-width:1;"/></g><g class="end_entity" data-qualified-name=".end." data-source-line="30" id="ent0018"><ellipse cx="402.94" cy="784.79" fill="none" rx="11" ry="11" style="stroke:#222222;stroke-width:1;"/><ellipse cx="402.94" cy="784.79" fill="#222222" rx="6" ry="6" style="stroke:#222222;stroke-width:1;"/></g><g class="entity" data-qualified-name="GMN21" data-source-line="34" id="ent0022"><path d="M406.63,13.76 L406.63,37.73 L372.26,41.73 L406.63,45.73 L406.63,69.6916 A0,0 0 0 0 406.63,69.6916 L677.2579,69.6916 A0,0 0 0 0 677.2579,69.6916 L677.2579,23.76 L667.2579,13.76 L406.63,13.76 A0,0 0 0 0 406.63,13.76" fill="#FEFFDD" style="stroke:#181818;stroke-width:0.5;"/><path d="M667.2579,13.76 L667.2579,23.76 L677.2579,23.76 L667.2579,13.76" fill="#FEFFDD" style="stroke:#181818;stroke-width:0.5;"/><text fill="#000000" font-family="sans-serif" font-size="13" font-weight="700" lengthAdjust="spacing" textLength="104.0762" x="412.63" y="31.3284">Reaper-exempt</text><text fill="#000000" font-family="sans-serif" font-size="13" lengthAdjust="spacing" textLength="141.4385" x="520.8195" y="31.3284">(ADR-032): paused on</text><text fill="#000000" font-family="sans-serif" font-size="13" lengthAdjust="spacing" textLength="211.1611" x="412.63" y="46.6389">the user, not stuck. The job waits</text><text fill="#000000" font-family="sans-serif" font-size="13" lengthAdjust="spacing" textLength="169.4316" x="412.63" y="61.9495">indefinitely for the answer.</text></g><g class="entity" data-qualified-name="GMN24" data-source-line="40" id="ent0025"><path d="M6,733.86 L6,835.7233 A0,0 0 0 0 6,835.7233 L317.8843,835.7233 A0,0 0 0 0 317.8843,835.7233 L317.8843,743.86 L307.8843,733.86 L165.94,733.86 L161.94,673.04 L157.94,733.86 L6,733.86 A0,0 0 0 0 6,733.86" fill="#FEFFDD" style="stroke:#181818;stroke-width:0.5;"/><path d="M307.8843,733.86 L307.8843,743.86 L317.8843,743.86 L307.8843,733.86" fill="#FEFFDD" style="stroke:#181818;stroke-width:0.5;"/><text fill="#000000" font-family="sans-serif" font-size="13" lengthAdjust="spacing" textLength="157.3394" x="12" y="751.4284">Idempotence (ADR-016):</text><ellipse cx="17.5" cy="761.9811" fill="#000000" rx="2.5" ry="2.5"/><text fill="#000000" font-family="sans-serif" font-size="13" lengthAdjust="spacing" textLength="245.0132" x="24" y="766.7389">"started" on a non-pending job: no-op</text><ellipse cx="17.5" cy="777.2916" fill="#000000" rx="2.5" ry="2.5"/><text fill="#000000" font-family="sans-serif" font-size="13" lengthAdjust="spacing" textLength="228.2554" x="24" y="782.0495">a failure never clobbers "completed"</text><ellipse cx="17.5" cy="792.6022" fill="#000000" rx="2.5" ry="2.5"/><text fill="#000000" font-family="sans-serif" font-size="13" lengthAdjust="spacing" textLength="278.8843" x="24" y="797.36">re-delivered results replace, never duplicate</text><ellipse cx="17.5" cy="807.9127" fill="#000000" rx="2.5" ry="2.5"/><text fill="#000000" font-family="sans-serif" font-size="13" lengthAdjust="spacing" textLength="263.1421" x="24" y="812.6705">repeated /question while awaiting: no-op</text><ellipse cx="17.5" cy="823.2233" fill="#000000" rx="2.5" ry="2.5"/><text fill="#000000" font-family="sans-serif" font-size="13" lengthAdjust="spacing" textLength="231.4736" x="24" y="827.9811">/answer outside awaiting_input: 409</text></g><!--link *start* to pending--><g class="link" data-entity-1="ent0006" data-entity-2="ent0001" data-link-type="dependency" data-source-line="13" id="lnk7"><path d="M735.32,52.19 C733.42,73.33 725.92,124.79 696.94,153.46 C684.41,165.87 673.5344,173.4146 657.2344,180.8946" fill="none" id="*start*-to-pending" style="stroke:#181818;stroke-width:1;"/><polygon fill="#181818" points="652.69,182.98,662.5381,182.8618,657.2344,180.8946,659.2015,175.5908,652.69,182.98" style="stroke:#181818;stroke-width:1;stroke-linejoin:miter;stroke-miterlimit:10;"/><text fill="#000000" font-family="sans-serif" font-size="13" lengthAdjust="spacing" textLength="124.3379" x="746.6271" y="127.5284">POST /api/searches</text><text fill="#000000" font-family="sans-serif" font-size="13" lengthAdjust="spacing" textLength="167.832" x="724.88" y="142.8389">(quota checked, ADR-017)</text></g><!--link pending to running--><g class="link" data-entity-1="ent0001" data-entity-2="ent0002" data-link-type="dependency" data-source-line="15" id="lnk8"><path d="M407.4,232.39 C368.98,240.84 327.11,252.05 289.94,266.44 C258.51,278.61 229.6961,294.8438 205.0561,310.2938" fill="none" id="pending-to-running" style="stroke:#181818;stroke-width:1;"/><polygon fill="#181818" points="200.82,312.95,210.57,311.5578,205.0561,310.2938,206.3201,304.78,200.82,312.95" style="stroke:#181818;stroke-width:1;stroke-linejoin:miter;stroke-miterlimit:10;"/><text fill="#000000" font-family="sans-serif" font-size="13" lengthAdjust="spacing" textLength="203.563" x="290.94" y="280.0084">POST /internal/jobs/{id}/started</text></g><!--link pending to failed--><g class="link" data-entity-1="ent0001" data-entity-2="ent0005" data-link-type="dependency" data-source-line="16" id="lnk9"><path d="M592.43,236.82 C649.28,265.72 722.27,315.22 686.94,366.42 C637.61,437.91 536.3638,459.0687 472.8438,465.5987" fill="none" id="pending-to-failed" style="stroke:#181818;stroke-width:1;"/><polygon fill="#181818" points="467.87,466.11,477.2319,469.1687,472.8438,465.5987,476.4138,461.2106,467.87,466.11" style="stroke:#181818;stroke-width:1;stroke-linejoin:miter;stroke-miterlimit:10;"/><text fill="#000000" font-family="sans-serif" font-size="13" lengthAdjust="spacing" textLength="173.3481" x="697.2" y="344.9984">dispatch to the agent failed</text></g><!--link pending to failed--><g class="link" data-entity-1="ent0001" data-entity-2="ent0005" data-link-type="dependency" data-source-line="25" id="lnk15"><path d="M530.64,236.68 C523.9,287.85 508.43,398.73 498.94,413.42 C491.2,425.4 483.9811,432.6187 472.1911,440.7187" fill="none" id="pending-to-failed-1" style="stroke:#181818;stroke-width:1;"/><polygon fill="#181818" points="468.07,443.55,477.7531,441.7505,472.1911,440.7187,473.223,435.1567,468.07,443.55" style="stroke:#181818;stroke-width:1;stroke-linejoin:miter;stroke-miterlimit:10;"/><text fill="#000000" font-family="sans-serif" font-size="13" lengthAdjust="spacing" textLength="93.5137" x="552.089" y="337.4984">reaper timeout</text><text fill="#000000" font-family="sans-serif" font-size="13" lengthAdjust="spacing" textLength="156.4316" x="520.63" y="352.8089">(JOB_TIMEOUT_MINUTES)</text></g><!--link pending to awaiting_input--><g class="link" data-entity-1="ent0001" data-entity-2="ent0003" data-link-type="dependency" data-source-line="17" id="lnk10"><path d="M511.13,183.16 C503.25,173.96 494.51,163.41 486.94,153.46 C471.64,133.35 475.29,121.44 454.94,106.46 C440.39,95.75 412.5396,85.5913 377.2596,75.2913" fill="none" id="pending-to-awaiting_input" style="stroke:#181818;stroke-width:1;"/><polygon fill="#181818" points="372.46,73.89,379.9783,80.252,377.2596,75.2913,382.2203,72.5725,372.46,73.89" style="stroke:#181818;stroke-width:1;stroke-linejoin:miter;stroke-miterlimit:10;"/><text fill="#000000" font-family="sans-serif" font-size="13" lengthAdjust="spacing" textLength="61.6104" x="557.5547" y="127.5284">/question</text><text fill="#000000" font-family="sans-serif" font-size="13" lengthAdjust="spacing" textLength="200.8398" x="487.94" y="142.8389">(race: question before "started")</text></g><!--link awaiting_input to pending--><g class="link" data-entity-1="ent0003" data-entity-2="ent0001" data-link-type="dependency" data-source-line="23" id="lnk14"><path d="M232.55,76.78 C225.51,100.86 221.54,132.48 238.94,153.46 C241.83,156.95 323.6268,172.137 402.2968,186.087" fill="none" id="awaiting_input-to-pending" style="stroke:#181818;stroke-width:1;"/><polygon fill="#181818" points="407.22,186.96,399.0566,181.45,402.2968,186.087,397.6598,189.3272,407.22,186.96" style="stroke:#181818;stroke-width:1;stroke-linejoin:miter;stroke-miterlimit:10;"/><text fill="#000000" font-family="sans-serif" font-size="13" lengthAdjust="spacing" textLength="202.8203" x="241.7999" y="120.0284">POST /api/searches/{id}/answer</text><text fill="#000000" font-family="sans-serif" font-size="13" lengthAdjust="spacing" textLength="195.1523" x="245.6338" y="135.3389">answer stored, journal cleared,</text><text fill="#000000" font-family="sans-serif" font-size="13" lengthAdjust="spacing" textLength="206.54" x="239.94" y="150.6495">re-dispatch with the clarification</text></g><!--link running to completed--><g class="link" data-entity-1="ent0002" data-entity-2="ent0004" data-link-type="dependency" data-source-line="19" id="lnk11"><path d="M153.86,366.67 C151.25,375.95 148.6,386.57 146.94,396.42 C133.88,474.08 123.84,495.91 137.94,573.39 C139.74,583.28 141.2295,588.9502 144.7695,598.3602" fill="none" id="running-to-completed" style="stroke:#181818;stroke-width:1;"/><polygon fill="#181818" points="146.53,603.04,147.1049,593.2079,144.7695,598.3602,139.6172,596.0248,146.53,603.04" style="stroke:#181818;stroke-width:1;stroke-linejoin:miter;stroke-miterlimit:10;"/><text fill="#000000" font-family="sans-serif" font-size="13" lengthAdjust="spacing" textLength="201.792" x="139.21" y="474.9684">POST /internal/jobs/{id}/results</text></g><!--link running to failed--><g class="link" data-entity-1="ent0002" data-entity-2="ent0005" data-link-type="dependency" data-source-line="20" id="lnk12"><path d="M206.99,366.81 C232.29,381.05 264.58,398.76 293.94,413.42 C317.31,425.08 339.0882,435.0856 361.3782,444.9556" fill="none" id="running-to-failed" style="stroke:#181818;stroke-width:1;"/><polygon fill="#181818" points="365.95,446.98,359.3402,439.6786,361.3782,444.9556,356.1012,446.9935,365.95,446.98" style="stroke:#181818;stroke-width:1;stroke-linejoin:miter;stroke-miterlimit:10;"/><text fill="#000000" font-family="sans-serif" font-size="13" lengthAdjust="spacing" textLength="199.3926" x="294.94" y="409.9884">POST /internal/jobs/{id}/failure</text></g><!--link running to failed--><g class="link" data-entity-1="ent0002" data-entity-2="ent0005" data-link-type="dependency" data-source-line="26" id="lnk16"><path d="M154.45,366.79 C151.71,382 151.47,400.69 161.94,413.42 C205.98,466.92 247.31,428.34 314.94,443.42 C331.6,447.13 344.851,450.3103 361.111,454.4003" fill="none" id="running-to-failed-1" style="stroke:#181818;stroke-width:1;"/><polygon fill="#181818" points="365.96,455.62,358.2076,449.5454,361.111,454.4003,356.2561,457.3037,365.96,455.62" style="stroke:#181818;stroke-width:1;stroke-linejoin:miter;stroke-miterlimit:10;"/><text fill="#000000" font-family="sans-serif" font-size="13" lengthAdjust="spacing" textLength="93.5137" x="162.94" y="409.9884">reaper timeout</text></g><!--link running to awaiting_input--><g class="link" data-entity-1="ent0002" data-entity-2="ent0003" data-link-type="dependency" data-source-line="21" id="lnk13"><path d="M158.83,313.05 C155.91,281.73 153.64,227.68 165.94,183.46 C176.9,144.07 198.3933,108.0936 217.3633,80.8436" fill="none" id="running-to-awaiting_input" style="stroke:#181818;stroke-width:1;"/><polygon fill="#181818" points="220.22,76.74,211.7951,81.8411,217.3633,80.8436,218.3608,86.4118,220.22,76.74" style="stroke:#181818;stroke-width:1;stroke-linejoin:miter;stroke-miterlimit:10;"/><text fill="#000000" font-family="sans-serif" font-size="13" lengthAdjust="spacing" textLength="214.0811" x="171.1326" y="207.5184">POST /internal/jobs/{id}/question</text><text fill="#000000" font-family="sans-serif" font-size="13" lengthAdjust="spacing" textLength="222.4663" x="166.94" y="222.8289">&#171;worker task ends &#8212; never blocks&#187;</text></g><!--link failed to completed--><g class="link" data-entity-1="ent0005" data-entity-2="ent0004" data-link-type="dependency" data-source-line="28" id="lnk17"><path d="M365.97,484.23 C349.7,488.32 331.61,492.71 314.94,496.39 C246,511.62 203.91,471.96 158.94,526.39 C141.61,547.37 143.1668,574.1345 149.0868,598.2245" fill="none" id="failed-to-completed" style="stroke:#181818;stroke-width:1;"/><polygon fill="#181818" points="150.28,603.08,152.0166,593.3855,149.0868,598.2245,144.2478,595.2946,150.28,603.08" style="stroke:#181818;stroke-width:1;stroke-linejoin:miter;stroke-miterlimit:10;"/><text fill="#000000" font-family="sans-serif" font-size="13" lengthAdjust="spacing" textLength="76.4766" x="248.7374" y="539.9584">late /results</text><text fill="#000000" font-family="sans-serif" font-size="13" lengthAdjust="spacing" textLength="159.8086" x="207.0713" y="555.2689">&#171;completion always wins:</text><text fill="#000000" font-family="sans-serif" font-size="13" lengthAdjust="spacing" textLength="254.0713" x="159.94" y="570.5795">results after a timeout are still valuable&#187;</text></g><!--link completed to *end*--><g class="link" data-entity-1="ent0004" data-entity-2="ent0018" data-link-type="dependency" data-source-line="30" id="lnk19"><path d="M229.26,673.32 C261.78,690.51 301.01,712.24 334.94,733.86 C357.42,748.18 378.3892,764.2672 390.8992,774.1672" fill="none" id="completed-to-*end*" style="stroke:#181818;stroke-width:1;"/><polygon fill="#181818" points="394.82,777.27,390.2448,768.5483,390.8992,774.1672,385.2803,774.8216,394.82,777.27" style="stroke:#181818;stroke-width:1;stroke-linejoin:miter;stroke-miterlimit:10;"/></g><!--link failed to *end*--><g class="link" data-entity-1="ent0005" data-entity-2="ent0018" data-link-type="dependency" data-source-line="31" id="lnk20"><path d="M418.07,496.87 C418.43,506.18 418.77,516.75 418.94,526.39 C419.32,547.28 419.73,552.52 418.94,573.39 C416.01,650.63 407.5432,738.5054 404.4832,768.7554" fill="none" id="failed-to-*end*" style="stroke:#181818;stroke-width:1;"/><polygon fill="#181818" points="403.98,773.73,408.8655,765.1783,404.4832,768.7554,400.9061,764.3731,403.98,773.73" style="stroke:#181818;stroke-width:1;stroke-linejoin:miter;stroke-miterlimit:10;"/></g><?plantuml-src XLJDRXCn4BxxAKQvj0dvQG61s0CIY1vQgHIrwOcYol7EPaqSUsjx6oA4n4Fm5Zm2jpuAJy9urxkRxOyunV7ED_xccvbl3qxC0fJCK6o5Gd2UUuGr5xdK2FllFfnF3WvVmJEeJY-U3wTi3uvkqMx1MwwTzD9ea0uuR8nTeGN1bLfmiHhJLUdeWeiGCmPZmUS85db1jtz__g9CNAU0LJP3pr4QcUAwC1wrJq05AeHAoq99GNzIqCRBB9mf8xrf4N9krmgTcpAM4nW8xhUGeXDM5Y6CiRgc0dKgzH8IEbad7QKRGofTmRt8ARKt5Js-fBSZn9PQrv1OMo75AeHIt5UIhInY8Dzm4a8lhwKkIa_nRIRWha44CQuq1w6uROk0cn9TTTXl58uvXLaN2aFH2MdcIkKTTSTOJA_qliL2SK7jmZNNNWhNe38kLGL1Qqcw6i3Ovz4Nc4pUxeZmwUnY3ZDUo9b3Raa1HsblIkE9O8wXp77TyyFNGyOQNCZHgLBdaDgZrLpDI18t-oxJ7pFYOebv3zOoQpJlAHu_zn0FL9qrOWK5gFoaKs-16LKAW_ZoW3WtF4EgNJ6VP1rLxW5Rra-YGaHfiOTwmFn9T5VHtUyuP9v61aW65tO4T5WFM2WZLkxk3sFtKl-lgVKhjAYRQlYgtpWLOvhXCj2XYQHekhZI5YTjUpRIvrM3UWFB7czgt6elrsXAJ_qvENj_FJy-FJgxd5-V7d-yd1zT31zNjWzbB7wutxRA3PeU1RdYnz1zhZPywuYnTaaeejuMdlbWFqtcoYv8RANWbgkIBnG6GRitmekqABi4mbz6faDU89Uv1vFTwoq368tEgmec-2sOpsZKhJ9v3QUrJydTAB0nWN6mCM9IYjKKvj5BGbP7GLAdc4ajFQejPD4pwxvD6IaVi1WvBOptPXr8jKLGXkF6GaLduCCa4EtM0u9eb4fFccuIXuGk9gQe8Zd4kOu3A9HPBCWtOT0-DQW2myIWaXH3PJRAHtiQHt1hu15HO6NcxV339YV5MsLtUSJH1UgV2_RULp-1bmTlEbN-0G00?></g></svg>